<svg width="18" height="24" viewBox="0 0 18 24" fill="none" xmlns="http://www.w3.org/2000/svg">
<path d="M9 0.1875C5.26071 0.1875 2.25 3.19821 2.25 6.9375V8.0625C1.0203 8.0625 0 9.0828 0 10.3125V21.5625C0 22.7922 1.0203 23.8125 2.25 23.8125H15.75C16.9797 23.8125 18 22.7922 18 21.5625V10.3125C18 9.0828 16.9797 8.0625 15.75 8.0625V6.9375C15.75 3.19821 12.7393 0.1875 9 0.1875ZM9 2.4375C11.5607 2.4375 13.5 4.37679 13.5 6.9375V8.0625H4.5V6.9375C4.5 4.37679 6.43929 2.4375 9 2.4375ZM2.25 10.3125H15.75V21.5625H2.25V10.3125ZM9 13.6875C7.7625 13.6875 6.75 14.7 6.75 15.9375C6.75 17.175 7.7625 18.1875 9 18.1875C10.2375 18.1875 11.25 17.175 11.25 15.9375C11.25 14.7 10.2375 13.6875 9 13.6875Z" fill="#6B7280"/>
</svg>
