<svg width="22" height="30" viewBox="0 0 22 30" fill="none" xmlns="http://www.w3.org/2000/svg">
<g filter="url(#filter0_d_44_409)">
<path d="M18.5 9.90918C18.5 5.76373 15.1455 2.40918 11 2.40918C6.85455 2.40918 3.5 5.76373 3.5 9.90918C3.5 13.591 6.14545 16.6319 9.63636 17.2728V20.1365H6.90909V22.8637H9.63636V25.591H12.3636V22.8637H15.0909V20.1365H12.3636V17.2728C15.8545 16.6319 18.5 13.591 18.5 9.90918ZM6.22727 9.90918C6.22727 7.27736 8.36818 5.13645 11 5.13645C13.6318 5.13645 15.7727 7.27736 15.7727 9.90918C15.7727 12.541 13.6318 14.6819 11 14.6819C8.36818 14.6819 6.22727 12.541 6.22727 9.90918Z" fill="#F8ACFF"/>
</g>
<defs>
<filter id="filter0_d_44_409" x="0.5" y="0.40918" width="21" height="29.1819" filterUnits="userSpaceOnUse" color-interpolation-filters="sRGB">
<feFlood flood-opacity="0" result="BackgroundImageFix"/>
<feColorMatrix in="SourceAlpha" type="matrix" values="0 0 0 0 0 0 0 0 0 0 0 0 0 0 0 0 0 0 127 0" result="hardAlpha"/>
<feOffset dy="1"/>
<feGaussianBlur stdDeviation="1.5"/>
<feComposite in2="hardAlpha" operator="out"/>
<feColorMatrix type="matrix" values="0 0 0 0 0 0 0 0 0 0 0 0 0 0 0 0 0 0 0.1 0"/>
<feBlend mode="normal" in2="BackgroundImageFix" result="effect1_dropShadow_44_409"/>
<feBlend mode="normal" in="SourceGraphic" in2="effect1_dropShadow_44_409" result="shape"/>
</filter>
</defs>
</svg>
