<svg width="26" height="26" viewBox="0 0 26 26" fill="none" xmlns="http://www.w3.org/2000/svg">
<g filter="url(#filter0_d_44_404)">
<path d="M9.875 10.75C12.2875 10.75 14.25 12.7125 14.25 15.125C14.25 17.5375 12.2875 19.5 9.875 19.5C7.4625 19.5 5.5 17.5375 5.5 15.125C5.5 12.7125 7.4625 10.75 9.875 10.75ZM9.875 8.25C6.075 8.25 3 11.325 3 15.125C3 18.925 6.075 22 9.875 22C13.675 22 16.75 18.925 16.75 15.125C16.75 13.675 16.3 12.3375 15.5375 11.225L20.5 6.275V9.5H23V2H15.5V4.5H18.725L13.7625 9.4625C12.6625 8.7 11.325 8.25 9.875 8.25Z" fill="#7DD3FC"/>
</g>
<defs>
<filter id="filter0_d_44_404" x="0" y="0" width="26" height="26" filterUnits="userSpaceOnUse" color-interpolation-filters="sRGB">
<feFlood flood-opacity="0" result="BackgroundImageFix"/>
<feColorMatrix in="SourceAlpha" type="matrix" values="0 0 0 0 0 0 0 0 0 0 0 0 0 0 0 0 0 0 127 0" result="hardAlpha"/>
<feOffset dy="1"/>
<feGaussianBlur stdDeviation="1.5"/>
<feComposite in2="hardAlpha" operator="out"/>
<feColorMatrix type="matrix" values="0 0 0 0 0 0 0 0 0 0 0 0 0 0 0 0 0 0 0.1 0"/>
<feBlend mode="normal" in2="BackgroundImageFix" result="effect1_dropShadow_44_404"/>
<feBlend mode="normal" in="SourceGraphic" in2="effect1_dropShadow_44_404" result="shape"/>
</filter>
</defs>
</svg>
